<svg id="Layer_1" data-name="Layer 1" xmlns="http://www.w3.org/2000/svg" viewBox="0 0 74.99 58.6"><defs><style>.cls-1{fill:#000000; opacity:0.08;}</style></defs><title>Untitled-3</title><path class="cls-1" d="M0.16,51.28a44.94,44.94,0,0,0,12.23-6.91,19.88,19.88,0,0,0,7.23-11.83,24.53,24.53,0,0,1-14-4.09Q-0.12,24.47,0,15.6A14.05,14.05,0,0,1,5.43,4.06,19,19,0,0,1,17.73,0Q27,0.12,31.26,6.41A25.07,25.07,0,0,1,35.4,21.14a29,29,0,0,1-3.24,13.47A40,40,0,0,1,24.1,45.06a47.89,47.89,0,0,1-11.29,7.77A88.31,88.31,0,0,1,.07,58Zm39.6,0.56A44.9,44.9,0,0,0,52,44.94,19.89,19.89,0,0,0,59.22,33.1a24.54,24.54,0,0,1-14-4.09q-5.76-4-5.63-12.85A14.05,14.05,0,0,1,45,4.62,19,19,0,0,1,57.33.57Q66.62,0.69,70.86,7A25.11,25.11,0,0,1,75,21.7a29,29,0,0,1-3.24,13.47A39.88,39.88,0,0,1,63.7,45.62a47.75,47.75,0,0,1-11.29,7.77A88.14,88.14,0,0,1,39.67,58.6Z"/></svg>